<svg xmlns="http://www.w3.org/2000/svg" x="0px" y="0px"
width="50" height="50"
viewBox="0 0 226 226"
style=" fill:#000000;"><g fill="none" fill-rule="nonzero" stroke="none" stroke-width="1" stroke-linecap="butt" stroke-linejoin="miter" stroke-miterlimit="10" stroke-dasharray="" stroke-dashoffset="0" font-family="none" font-weight="none" font-size="none" text-anchor="none" style="mix-blend-mode: normal"><path d="M0,226v-226h226v226z" fill="none"></path><g fill="#000000"><path d="M112.08323,15.45346c-0.1146,0.00178 -0.2297,0.00781 -0.34379,0.01867c-1.30385,0.17385 4.2156,-2.34675 -88.61825,43.20094c-1.39077,0.69538 -2.25983,1.9556 -2.43368,3.30291c-0.08692,0.60846 -0.04329,101.09137 -0.04329,101.30868c0.08692,1.56462 0.65226,2.82568 2.08649,3.73837c0.52154,0.30423 83.96735,41.24483 87.66158,43.07022c0.82577,0.39115 1.60774,0.47825 2.47697,0.39132c1.13,-0.13038 -4.60625,2.52043 88.48837,-43.15765c0.04346,0 0.4774,-0.26094 0.60778,-0.39132c0.99962,-0.69538 1.60859,-1.69517 1.82589,-2.99902c0.04346,-0.26077 0.08692,-101.30817 0,-101.87317c-0.30423,-1.65154 -1.21675,-2.78188 -2.43368,-3.39034l-87.18452,-42.76632c-0.49438,-0.2662 -1.28772,-0.46577 -2.08989,-0.45329zM54.58752,19.86158c-2.43385,0 -4.43274,1.99974 -4.43274,4.43359c0,2.47731 1.99889,4.43274 4.43274,4.43274c2.43385,0 4.43359,-1.99889 4.43359,-4.43274c0,-2.43385 -1.99974,-4.43359 -4.43359,-4.43359zM169.89132,19.86158c-2.43385,0 -4.43359,1.99974 -4.43359,4.43359c0,2.47731 1.99974,4.43274 4.43359,4.43274c2.43385,0 4.43274,-1.99889 4.43274,-4.43274c0,-2.43385 -1.99889,-4.43359 -4.43274,-4.43359zM107.78462,26.98945v21.07885l-55.58748,25.1644l-17.68851,-10.21346zM116.69423,26.98945l73.31928,35.98649l-17.7318,10.25675l-18.29714,-8.30098c-2.21654,-0.99962 -4.86769,-0.00017 -5.86731,2.21637c-0.99962,2.21654 -0.00017,4.86769 2.21637,5.86731l11.21257,5.08466l-49.28471,21.20957l-49.28555,-21.20957l49.28555,-22.29526l17.77509,8.04038c2.21654,0.99962 4.86769,0.04363 5.86731,-2.21637c0.99962,-2.21654 0.00017,-4.86769 -2.21637,-5.86731l-16.99329,-7.6932zM29.51055,70.3644l17.99325,10.38748v64.49625l-17.99325,10.38748zM194.96829,70.3644v85.2712l-18.03654,-10.38748v-64.49625zM56.36928,84.92402l51.41534,22.12209v61.15005l-13.34235,-6.04132c-2.21654,-0.99962 -4.86769,-0.00017 -5.86731,2.21637c-0.99962,2.21654 -0.00017,4.86769 2.21637,5.86731l16.99329,7.6932v21.07885l-73.31928,-35.98649l17.7318,-10.25675c19.90538,8.86615 19.12325,8.9962 20.81825,8.9962c1.695,0 3.30342,-0.95615 4.04226,-2.60769c0.99962,-2.21654 -0.00068,-4.86769 -2.21722,-5.86731l-18.47115,-8.34428zM168.06543,84.92402v60.02022l-51.41449,23.25192v-61.15005zM67.88064,117.42594c-1.42311,0.0034 -2.81906,0.68588 -3.68829,1.96256c-1.39077,2.04269 -0.82543,4.78145 1.21726,6.12875l13.29906,8.86548c1.99923,1.34731 4.78128,0.82628 6.17205,-1.21641c1.34731,-1.99923 0.82543,-4.73714 -1.21726,-6.12791l-13.29906,-8.86632c-0.76601,-0.50524 -1.62989,-0.74818 -2.48376,-0.74615zM156.59566,117.44038c-0.85157,-0.00968 -1.7152,0.22647 -2.48121,0.73171l-13.29906,8.86632c-3.65077,2.43385 -1.91265,8.12697 2.47697,8.12697c0.82577,0 1.69568,-0.26043 2.43452,-0.73851l13.29906,-8.86632c2.04269,-1.34731 2.60718,-4.12868 1.21641,-6.12791c-0.84207,-1.27668 -2.2274,-1.97614 -3.6467,-1.99227zM156.59566,130.73689c-0.85157,-0.00739 -1.7152,0.22902 -2.48121,0.73426l-13.29906,8.86632c-3.65077,2.43385 -1.86919,8.12697 2.47697,8.12697c0.82577,0 1.69568,-0.26043 2.43452,-0.73851l13.29906,-8.86632c2.04269,-1.34731 2.60718,-4.12851 1.21641,-6.1712c-0.84207,-1.24952 -2.2274,-1.93921 -3.6467,-1.95152zM94.52885,135.16538c-2.43385,0 -4.43274,1.99889 -4.43274,4.43274c0,2.47731 1.95543,4.43359 4.43274,4.43359c2.43385,0 4.43274,-1.99974 4.43274,-4.43359c0,-2.43385 -1.99889,-4.43274 -4.43274,-4.43274zM172.23842,152.76731l17.7318,10.21346l-73.31928,35.98649v-21.03555zM200.92303,179.53945c-2.43385,0 -4.43359,1.99974 -4.43359,4.43359c0,2.43385 1.99974,4.43274 4.43359,4.43274c2.43385,0 4.43274,-1.99889 4.43274,-4.43274c0,-2.47731 -1.95543,-4.43359 -4.43274,-4.43359zM36.85572,188.40577c-2.43385,0 -4.43359,1.99889 -4.43359,4.43274c0,2.43385 1.99974,4.43359 4.43359,4.43359c2.43385,0 4.43274,-1.99974 4.43274,-4.43359c0,-2.47731 -1.99889,-4.43274 -4.43274,-4.43274zM169.89132,197.27209c-2.43385,0 -4.43359,1.99889 -4.43359,4.43274c0,2.43385 1.99974,4.43359 4.43359,4.43359c2.43385,0 4.43274,-1.99974 4.43274,-4.43359c0,-2.47731 -1.99889,-4.43274 -4.43274,-4.43274z"></path></g></g></svg>